<mxfile host="Electron" agent="Mozilla/5.0 (Windows NT 10.0; Win64; x64) AppleWebKit/537.36 (KHTML, like Gecko) draw.io/24.7.17 Chrome/128.0.6613.36 Electron/32.0.1 Safari/537.36" version="24.7.17">
  <diagram name="Page-1" id="7bbgGXHDAMbKyw0ES_J_">
    <mxGraphModel dx="868" dy="1182" grid="1" gridSize="10" guides="1" tooltips="1" connect="1" arrows="1" fold="1" page="1" pageScale="1" pageWidth="850" pageHeight="1100" math="0" shadow="0">
      <root>
        <mxCell id="0" />
        <mxCell id="1" parent="0" />
        <mxCell id="81-xmkOyevsGdP5W5WWA-12" value="" style="rounded=0;whiteSpace=wrap;html=1;" vertex="1" parent="1">
          <mxGeometry x="350" y="50" width="150" height="1000" as="geometry" />
        </mxCell>
        <mxCell id="81-xmkOyevsGdP5W5WWA-2" value="UC1: In kaart brengen waar exoten voorkomen" style="ellipse;whiteSpace=wrap;html=1;" vertex="1" parent="1">
          <mxGeometry x="365" y="60" width="120" height="80" as="geometry" />
        </mxCell>
        <mxCell id="81-xmkOyevsGdP5W5WWA-3" value="UC2: In kaart brengen waar exoten inheemse soorten verdringen" style="ellipse;whiteSpace=wrap;html=1;" vertex="1" parent="1">
          <mxGeometry x="365" y="160" width="120" height="80" as="geometry" />
        </mxCell>
        <mxCell id="81-xmkOyevsGdP5W5WWA-4" value="UC3: In kaart brengen waar exoten zich uitbreiden" style="ellipse;whiteSpace=wrap;html=1;" vertex="1" parent="1">
          <mxGeometry x="365" y="260" width="120" height="80" as="geometry" />
        </mxCell>
        <mxCell id="81-xmkOyevsGdP5W5WWA-5" value="UC4: Inzicht krijgen in de exoten" style="ellipse;whiteSpace=wrap;html=1;" vertex="1" parent="1">
          <mxGeometry x="365" y="360" width="120" height="80" as="geometry" />
        </mxCell>
        <mxCell id="81-xmkOyevsGdP5W5WWA-6" value="UC5: Inzicht krijgen in de groei van exoten" style="ellipse;whiteSpace=wrap;html=1;" vertex="1" parent="1">
          <mxGeometry x="365" y="460" width="120" height="80" as="geometry" />
        </mxCell>
        <mxCell id="81-xmkOyevsGdP5W5WWA-7" value="UC6: Beschermlocaties inheemse soorten vinden" style="ellipse;whiteSpace=wrap;html=1;" vertex="1" parent="1">
          <mxGeometry x="365" y="560" width="120" height="80" as="geometry" />
        </mxCell>
        <mxCell id="81-xmkOyevsGdP5W5WWA-8" value="UC7: Suggesties geven over exoten" style="ellipse;whiteSpace=wrap;html=1;" vertex="1" parent="1">
          <mxGeometry x="365" y="660" width="120" height="80" as="geometry" />
        </mxCell>
        <mxCell id="81-xmkOyevsGdP5W5WWA-9" value="UC8: Geobserveerde planten aangeven" style="ellipse;whiteSpace=wrap;html=1;" vertex="1" parent="1">
          <mxGeometry x="365" y="760" width="120" height="80" as="geometry" />
        </mxCell>
        <mxCell id="81-xmkOyevsGdP5W5WWA-10" value="UC9: Plaats geobserveerde planten aangeven" style="ellipse;whiteSpace=wrap;html=1;" vertex="1" parent="1">
          <mxGeometry x="365" y="860" width="120" height="80" as="geometry" />
        </mxCell>
        <mxCell id="81-xmkOyevsGdP5W5WWA-11" value="UC10: Educatieve spellen spelen" style="ellipse;whiteSpace=wrap;html=1;" vertex="1" parent="1">
          <mxGeometry x="365" y="960" width="120" height="80" as="geometry" />
        </mxCell>
        <mxCell id="81-xmkOyevsGdP5W5WWA-13" value="Medewerker" style="shape=umlActor;verticalLabelPosition=bottom;verticalAlign=top;html=1;outlineConnect=0;" vertex="1" parent="1">
          <mxGeometry x="160" y="120" width="30" height="60" as="geometry" />
        </mxCell>
        <mxCell id="81-xmkOyevsGdP5W5WWA-14" value="" style="endArrow=none;html=1;rounded=0;exitX=0;exitY=0.5;exitDx=0;exitDy=0;entryX=1;entryY=0.3333333333333333;entryDx=0;entryDy=0;entryPerimeter=0;" edge="1" parent="1" source="81-xmkOyevsGdP5W5WWA-2" target="81-xmkOyevsGdP5W5WWA-13">
          <mxGeometry width="50" height="50" relative="1" as="geometry">
            <mxPoint x="410" y="460" as="sourcePoint" />
            <mxPoint x="460" y="410" as="targetPoint" />
          </mxGeometry>
        </mxCell>
        <mxCell id="81-xmkOyevsGdP5W5WWA-15" value="" style="endArrow=none;html=1;rounded=0;entryX=0;entryY=0.5;entryDx=0;entryDy=0;" edge="1" parent="1" target="81-xmkOyevsGdP5W5WWA-3">
          <mxGeometry width="50" height="50" relative="1" as="geometry">
            <mxPoint x="190" y="140" as="sourcePoint" />
            <mxPoint x="460" y="410" as="targetPoint" />
          </mxGeometry>
        </mxCell>
        <mxCell id="81-xmkOyevsGdP5W5WWA-16" value="" style="endArrow=none;html=1;rounded=0;exitX=1;exitY=0.3333333333333333;exitDx=0;exitDy=0;exitPerimeter=0;entryX=0;entryY=0.5;entryDx=0;entryDy=0;" edge="1" parent="1" source="81-xmkOyevsGdP5W5WWA-13" target="81-xmkOyevsGdP5W5WWA-4">
          <mxGeometry width="50" height="50" relative="1" as="geometry">
            <mxPoint x="410" y="460" as="sourcePoint" />
            <mxPoint x="460" y="410" as="targetPoint" />
          </mxGeometry>
        </mxCell>
        <mxCell id="81-xmkOyevsGdP5W5WWA-17" value="" style="endArrow=none;html=1;rounded=0;exitX=1;exitY=0.3333333333333333;exitDx=0;exitDy=0;exitPerimeter=0;entryX=0;entryY=0.5;entryDx=0;entryDy=0;" edge="1" parent="1" source="81-xmkOyevsGdP5W5WWA-13" target="81-xmkOyevsGdP5W5WWA-5">
          <mxGeometry width="50" height="50" relative="1" as="geometry">
            <mxPoint x="410" y="460" as="sourcePoint" />
            <mxPoint x="460" y="410" as="targetPoint" />
          </mxGeometry>
        </mxCell>
        <mxCell id="81-xmkOyevsGdP5W5WWA-18" value="" style="endArrow=none;html=1;rounded=0;exitX=0;exitY=0.5;exitDx=0;exitDy=0;entryX=1;entryY=0.3333333333333333;entryDx=0;entryDy=0;entryPerimeter=0;" edge="1" parent="1" source="81-xmkOyevsGdP5W5WWA-6" target="81-xmkOyevsGdP5W5WWA-13">
          <mxGeometry width="50" height="50" relative="1" as="geometry">
            <mxPoint x="410" y="460" as="sourcePoint" />
            <mxPoint x="460" y="410" as="targetPoint" />
          </mxGeometry>
        </mxCell>
        <mxCell id="81-xmkOyevsGdP5W5WWA-20" value="" style="endArrow=none;html=1;rounded=0;exitX=0;exitY=0.5;exitDx=0;exitDy=0;entryX=1;entryY=0.3333333333333333;entryDx=0;entryDy=0;entryPerimeter=0;" edge="1" parent="1" source="81-xmkOyevsGdP5W5WWA-7" target="81-xmkOyevsGdP5W5WWA-13">
          <mxGeometry width="50" height="50" relative="1" as="geometry">
            <mxPoint x="410" y="460" as="sourcePoint" />
            <mxPoint x="460" y="410" as="targetPoint" />
          </mxGeometry>
        </mxCell>
        <mxCell id="81-xmkOyevsGdP5W5WWA-21" value="Gast" style="shape=umlActor;verticalLabelPosition=bottom;verticalAlign=top;html=1;outlineConnect=0;" vertex="1" parent="1">
          <mxGeometry x="640" y="910" width="30" height="60" as="geometry" />
        </mxCell>
        <mxCell id="81-xmkOyevsGdP5W5WWA-22" value="" style="endArrow=none;html=1;rounded=0;exitX=1;exitY=0.5;exitDx=0;exitDy=0;entryX=0;entryY=0.3333333333333333;entryDx=0;entryDy=0;entryPerimeter=0;" edge="1" parent="1" source="81-xmkOyevsGdP5W5WWA-11" target="81-xmkOyevsGdP5W5WWA-21">
          <mxGeometry width="50" height="50" relative="1" as="geometry">
            <mxPoint x="490" y="630" as="sourcePoint" />
            <mxPoint x="540" y="580" as="targetPoint" />
          </mxGeometry>
        </mxCell>
        <mxCell id="81-xmkOyevsGdP5W5WWA-23" value="" style="endArrow=none;html=1;rounded=0;exitX=1;exitY=0.5;exitDx=0;exitDy=0;entryX=0;entryY=0.3333333333333333;entryDx=0;entryDy=0;entryPerimeter=0;" edge="1" parent="1" source="81-xmkOyevsGdP5W5WWA-10" target="81-xmkOyevsGdP5W5WWA-21">
          <mxGeometry width="50" height="50" relative="1" as="geometry">
            <mxPoint x="490" y="630" as="sourcePoint" />
            <mxPoint x="540" y="580" as="targetPoint" />
          </mxGeometry>
        </mxCell>
        <mxCell id="81-xmkOyevsGdP5W5WWA-24" value="" style="endArrow=none;html=1;rounded=0;exitX=1;exitY=0.5;exitDx=0;exitDy=0;entryX=0;entryY=0.3333333333333333;entryDx=0;entryDy=0;entryPerimeter=0;" edge="1" parent="1" source="81-xmkOyevsGdP5W5WWA-8" target="81-xmkOyevsGdP5W5WWA-21">
          <mxGeometry width="50" height="50" relative="1" as="geometry">
            <mxPoint x="490" y="630" as="sourcePoint" />
            <mxPoint x="540" y="580" as="targetPoint" />
          </mxGeometry>
        </mxCell>
      </root>
    </mxGraphModel>
  </diagram>
</mxfile>
